<svg xmlns="http://www.w3.org/2000/svg" width="14" height="17" fill="none">
  <path
    d="M5.833 4.293V6.3l-1.448.006-1.449.006 2.021 2.31c1.111 1.27 2.031 2.31 2.043 2.31.012 0 .932-1.04 2.043-2.31l2.021-2.31-1.449-.006L8.167 6.3V2.287H5.833v2.006m-4.666 6.718c0 2.492.003 2.737.039 2.849a.684.684 0 0 0 .352.389c.106.041.34.043 5.442.043 4.456 0 5.347-.006 5.422-.032a.697.697 0 0 0 .337-.317l.063-.118.006-2.771.006-2.771H11.667v4.667H2.333V8.283H1.167v2.728"
    fill="#2B2B2B" fill-rule="evenodd" />
</svg>